<?xml version="1.0" encoding="UTF-8"?><svg id="Layer_2" xmlns="http://www.w3.org/2000/svg" viewBox="0 0 52.78 52.78"><g id="Layer_1-2"><g><path d="m35.94,24.54c-.77,0-1.41.28-1.91.85-.5.56-.75,1.33-.74,2.3h5.28c-.03-1.03-.29-1.81-.79-2.34-.5-.54-1.11-.8-1.84-.8Z"/><path d="m21.54,27.69c-.51-.18-1.61-.27-3.31-.27h-3.01v4.95h3.46c1.34,0,2.2-.04,2.56-.11.55-.11,1.01-.35,1.35-.74.35-.39.52-.92.52-1.57,0-.56-.14-1.03-.4-1.41-.27-.39-.66-.67-1.17-.85Z"/><path d="m26.39,0C11.81,0,0,11.81,0,26.39s11.81,26.39,26.39,26.39,26.39-11.82,26.39-26.39S40.96,0,26.39,0Zm5.47,18.01h7.94v2.17h-7.94v-2.17Zm-5.49,14.59c-.39.8-.92,1.43-1.6,1.91-.68.47-1.51.77-2.5.88-.62.07-2.12.12-4.5.12h-6.29v-18.48h7.39c1.47,0,2.56.06,3.27.18.72.12,1.36.38,1.93.76.57.39,1.04.9,1.42,1.54.38.64.57,1.36.57,2.16,0,.86-.23,1.66-.7,2.37-.47.72-1.1,1.26-1.89,1.62,1.12.33,1.98.89,2.59,1.68.6.79.9,1.72.9,2.79,0,.84-.19,1.66-.58,2.46Zm15.71-2.74h-8.85c.03,1.05.31,1.87.86,2.45.54.59,1.22.88,2.03.88.55,0,1.02-.15,1.39-.45.38-.3.66-.79.86-1.46l3.54.59c-.45,1.29-1.17,2.28-2.15,2.96-.98.68-2.21,1.02-3.67,1.02-2.33,0-4.05-.76-5.17-2.28-.88-1.22-1.32-2.76-1.32-4.62,0-2.22.58-3.96,1.74-5.22,1.16-1.26,2.62-1.89,4.4-1.89,1.99,0,3.56.66,4.71,1.97,1.15,1.32,1.7,3.33,1.65,6.05Z"/><path d="m20.36,24.29c.64-.07,1.14-.29,1.51-.66.37-.37.55-.84.55-1.44s-.16-1.03-.47-1.39c-.31-.36-.78-.57-1.4-.64-.37-.04-1.43-.06-3.18-.06h-2.14v4.26h2.44c1.45,0,2.35-.02,2.71-.06Z"/></g></g></svg>