<?xml version="1.0" encoding="UTF-8"?><svg id="Layer_2" xmlns="http://www.w3.org/2000/svg" viewBox="0 0 52.78 52.78"><g id="Layer_1-2"><g><path d="m35.79,13.34h-18.8c-2.09,0-3.79,1.7-3.79,3.79v18.51c0,2.09,1.7,3.79,3.79,3.79h18.8c2.09,0,3.79-1.7,3.79-3.79v-18.51c0-2.09-1.7-3.79-3.79-3.79Zm-9.4,22.74c-5.34,0-9.69-4.35-9.69-9.69s4.35-9.7,9.69-9.7,9.69,4.35,9.69,9.7-4.35,9.69-9.69,9.69Zm9.55-16.95c-.97,0-1.76-.79-1.76-1.76s.79-1.76,1.76-1.76,1.76.79,1.76,1.76-.79,1.76-1.76,1.76Z"/><path d="m26.39,19.52c-3.79,0-6.87,3.08-6.87,6.87s3.08,6.87,6.87,6.87,6.87-3.08,6.87-6.87-3.08-6.87-6.87-6.87Z"/><path d="m26.39,0C11.82,0,0,11.82,0,26.39s11.82,26.39,26.39,26.39,26.39-11.82,26.39-26.39S40.96,0,26.39,0Zm16.07,35.65c0,3.68-2.99,6.67-6.67,6.67h-18.8c-3.68,0-6.67-2.99-6.67-6.67v-18.51c0-3.68,2.99-6.67,6.67-6.67h18.8c3.68,0,6.67,2.99,6.67,6.67v18.51Z"/></g></g></svg>