<?xml version="1.0" encoding="UTF-8"?><svg id="Layer_2" xmlns="http://www.w3.org/2000/svg" viewBox="0 0 52.78 52.78"><g id="Layer_1-2"><path d="m26.39,0C11.81,0,0,11.81,0,26.39s11.81,26.39,26.39,26.39,26.39-11.82,26.39-26.39S40.96,0,26.39,0Zm-6.46,37.41h-6.11v-17.46h6.11v17.46Zm-3.69-20.14c-1.15-.23-2.09-1.16-2.34-2.31-.43-1.98,1.07-3.74,2.98-3.74,1.69,0,3.05,1.37,3.05,3.05,0,1.9-1.72,3.39-3.69,2.99Zm23.77,20.14h-5.24v-8.99c0-2.03-.22-4.15-3-4.15s-3.25,1.72-3.25,4v9.14h-5.09v-17.46h4.95v1.87c.72-1.38,1.98-1.87,5.14-1.87,4.45,0,6.09,2.07,6.5,5.36.1.77,0,12.1,0,12.1Z"/></g></svg>